<?xml version="1.0" encoding="iso-8859-1"?>
<!-- Uploaded to: SVG Repo, www.svgrepo.com, Generator: SVG Repo Mixer Tools -->
<svg height="800px" width="800px" version="1.1" id="Layer_1" xmlns="http://www.w3.org/2000/svg" xmlns:xlink="http://www.w3.org/1999/xlink" 
	 viewBox="0 0 512 512" xml:space="preserve">
<path style="fill:#FF7452;" d="M458.853,256.961L266.66,64.767c-5.215-5.216-12.426-7.807-19.76-7.116L103.801,71.151
	C92.024,72.262,82.67,81.616,81.558,93.393L68.058,236.492c-0.693,7.342,1.9,14.544,7.115,19.76l192.194,192.194
	c8.017,8.015,18.544,12.023,29.072,12.023c10.529,0,21.057-4.008,29.073-12.023l133.34-133.343
	c7.766-7.766,12.042-18.09,12.042-29.071C470.896,275.051,466.618,264.726,458.853,256.961z M131.312,120.906
	c3.634-3.632,9.547-3.634,13.179,0c3.633,3.633,3.633,9.546,0.001,13.179c-3.633,3.633-9.546,3.636-13.179,0
	C127.679,130.451,127.679,124.539,131.312,120.906L131.312,120.906z"/>
<polygon style="fill:#E24642;" points="256.769,363.41 231.735,367.375 212.036,351.424 187.553,344.863 176.046,322.279 
	156.348,306.328 155.021,281.016 143.514,258.433 152.598,234.769 151.272,209.457 169.194,191.534 178.277,167.87 201.94,158.787 
	219.864,140.863 245.176,142.19 268.84,133.107 291.424,144.614 316.735,145.941 332.686,165.639 355.27,177.145 361.831,201.629 
	377.783,221.327 373.818,246.362 380.378,270.846 366.573,292.103 362.607,317.138 341.351,330.942 327.547,352.2 302.511,356.165 
	281.253,369.97 "/>
<path style="fill:#FFD652;" d="M370.54,265.901l-5.117-19.1l3.092-19.529c0.365-2.302-0.264-4.65-1.73-6.461l-12.444-15.367
	l-5.119-19.1c-0.603-2.251-2.132-4.14-4.209-5.198l-17.617-8.977l-12.443-15.367c-1.467-1.811-3.632-2.915-5.961-3.037
	l-19.746-1.035l-17.616-8.977c-2.078-1.058-4.505-1.186-6.68-0.35l-18.459,7.086l-19.747-1.035c-2.331-0.124-4.598,0.75-6.245,2.398
	l-13.981,13.981l-18.459,7.086c-2.175,0.835-3.895,2.555-4.73,4.73l-7.086,18.459l-13.982,13.981
	c-1.648,1.648-2.518,3.917-2.397,6.245l1.034,19.745l-7.086,18.459c-0.835,2.175-0.708,4.604,0.35,6.679l8.977,17.617l1.035,19.745
	c0.121,2.328,1.225,4.494,3.037,5.96l15.367,12.444l8.977,17.617c1.058,2.077,2.947,3.607,5.198,4.21l19.099,5.117l15.368,12.444
	c1.81,1.466,4.157,2.097,6.461,1.731l19.529-3.093l19.1,5.117c0.702,0.187,1.417,0.28,2.128,0.28c1.574,0,3.132-0.453,4.479-1.327
	l16.582-10.768l19.529-3.093c2.302-0.365,4.342-1.689,5.61-3.643l10.768-16.582l16.582-10.768c1.954-1.27,3.278-3.308,3.642-5.61
	l3.094-19.529l10.768-16.582C370.763,270.554,371.143,268.153,370.54,265.901z"/>
<circle style="fill:#FB9D46;" cx="263.138" cy="251.614" r="85.516"/>
<g>
	<path style="fill:#4C4C4C;" d="M132.651,130.467c-2.104,0-4.209-0.803-5.815-2.409L12.815,14.036
		c-3.211-3.211-3.211-8.418,0-11.628c3.212-3.211,8.418-3.211,11.629,0L138.465,116.43c3.211,3.211,3.211,8.418,0,11.628
		C136.86,129.663,134.755,130.467,132.651,130.467z"/>
	<path style="fill:#4C4C4C;" d="M233.676,247.92c-14.207,0-25.764-11.558-25.764-25.764s11.558-25.764,25.764-25.764
		c14.207,0,25.764,11.558,25.764,25.764S247.883,247.92,233.676,247.92z M233.676,212.836c-5.139,0-9.319,4.18-9.319,9.319
		c0,5.139,4.18,9.319,9.319,9.319c5.139,0,9.319-4.18,9.319-9.319C242.995,217.016,238.814,212.836,233.676,212.836z"/>
	<path style="fill:#4C4C4C;" d="M292.595,306.838c-14.207,0-25.764-11.558-25.764-25.764s11.558-25.764,25.764-25.764
		c14.207,0,25.764,11.558,25.764,25.764S306.801,306.838,292.595,306.838z M292.595,271.754c-5.139,0-9.319,4.18-9.319,9.319
		c0,5.139,4.18,9.319,9.319,9.319c5.139,0,9.319-4.18,9.319-9.319C301.914,275.935,297.732,271.754,292.595,271.754z"/>
	<path style="fill:#4C4C4C;" d="M221.357,301.614c-2.104,0-4.209-0.803-5.815-2.409c-3.211-3.211-3.211-8.418,0-11.628
		l85.516-85.516c3.212-3.211,8.418-3.211,11.629,0c3.211,3.211,3.211,8.418,0,11.628l-85.516,85.516
		C225.566,300.811,223.461,301.614,221.357,301.614z"/>
</g>
<g>
	<path style="fill:#FFD652;" d="M493.371,86.612c4.542,0,8.223-3.682,8.223-8.223c0-4.541-3.68-8.223-8.223-8.223h-22.475v-9.319
		c0-4.541-3.68-8.223-8.223-8.223s-8.223,3.682-8.223,8.223v9.319h-7.126c-10.579,0-19.186,8.608-19.186,19.186v17.542
		c0,10.579,8.608,19.186,19.186,19.186h7.126v23.024h-22.475c-4.542,0-8.223,3.682-8.223,8.223s3.68,8.223,8.223,8.223h22.475v9.319
		c0,4.541,3.68,8.223,8.223,8.223s8.223-3.682,8.223-8.223v-9.319h7.126c10.579,0,19.186-8.608,19.186-19.186v-17.542
		c0-10.579-8.608-19.186-19.186-19.186h-7.126V86.612H493.371z M478.022,126.081c1.512,0,2.741,1.23,2.741,2.741v17.542
		c0,1.511-1.229,2.741-2.741,2.741h-7.126v-23.024H478.022z M454.45,109.636h-7.126c-1.512,0-2.741-1.23-2.741-2.741V89.353
		c0-1.511,1.229-2.741,2.741-2.741h7.126V109.636z"/>
	<path style="fill:#FFD652;" d="M493.371,415.52c4.542,0,8.223-3.682,8.223-8.223s-3.68-8.223-8.223-8.223h-22.475v-9.319
		c0-4.541-3.68-8.223-8.223-8.223s-8.223,3.682-8.223,8.223v9.319h-7.126c-10.579,0-19.186,8.608-19.186,19.186v17.542
		c0,10.579,8.608,19.186,19.186,19.186h7.126v23.024h-22.475c-4.542,0-8.223,3.682-8.223,8.223c0,4.541,3.68,8.223,8.223,8.223
		h22.475v9.319c0,4.541,3.68,8.223,8.223,8.223s8.223-3.682,8.223-8.223v-9.319h7.126c10.579,0,19.186-8.608,19.186-19.186V457.73
		c0-10.579-8.608-19.186-19.186-19.186h-7.126V415.52H493.371z M478.022,454.989c1.512,0,2.741,1.23,2.741,2.741v17.542
		c0,1.511-1.229,2.741-2.741,2.741h-7.126v-23.024H478.022z M454.45,438.544h-7.126c-1.512,0-2.741-1.23-2.741-2.741v-17.542
		c0-1.511,1.229-2.741,2.741-2.741h7.126V438.544z"/>
	<path style="fill:#FFD652;" d="M133.765,415.52c4.542,0,8.223-3.682,8.223-8.223s-3.68-8.223-8.223-8.223H111.29v-9.319
		c0-4.541-3.68-8.223-8.223-8.223c-4.542,0-8.223,3.682-8.223,8.223v9.319h-7.126c-10.579,0-19.186,8.608-19.186,19.186v17.542
		c0,10.579,8.608,19.186,19.186,19.186h7.126v23.024H72.369c-4.542,0-8.223,3.682-8.223,8.223c0,4.541,3.68,8.223,8.223,8.223
		h22.475v9.319c0,4.541,3.68,8.223,8.223,8.223c4.542,0,8.223-3.682,8.223-8.223v-9.319h7.126c10.579,0,19.186-8.608,19.186-19.186
		V457.73c0-10.579-8.608-19.186-19.186-19.186h-7.126V415.52H133.765z M118.416,454.989c1.512,0,2.741,1.23,2.741,2.741v17.542
		c0,1.511-1.229,2.741-2.741,2.741h-7.126v-23.024H118.416z M94.844,438.544h-7.126c-1.512,0-2.741-1.23-2.741-2.741v-17.542
		c0-1.511,1.229-2.741,2.741-2.741h7.126V438.544z"/>
</g>
</svg>